<svg version="1" xmlns="http://www.w3.org/2000/svg" width="346.667" height="346.667" viewBox="0 0 260.000000 260.000000"><path d="M56.4 51.3C43 54.8 36.3 63.5 37.2 76.1c.7 10.2 7.1 16.1 22.7 20.9 11.8 3.7 15.6 6 17.8 10.5 3.9 8.1-3.7 16.5-14.8 16.5-9 0-13.5-3.1-20.1-14.3-2.2-3.7-4.4-6.7-4.9-6.7s-.9 4-.9 8.9v8.9l4.8 2c13.2 5.6 29.9 5.5 41.3-.4 16.1-8.1 16.9-30.2 1.3-38.6-2.7-1.4-8.3-3.6-12.4-4.8-14.8-4.3-21.1-9.8-19.5-17 1.2-5.6 9.3-9.6 17.2-8.7 5.4.6 9.5 4.2 13.8 12.2 1.7 3 3.3 5.5 3.6 5.5 1.1 0 1.9-4.2 1.9-10.2v-5.7L83.3 53c-7.1-2.7-19.8-3.5-26.9-1.7zM112.5 101c-7 2.9-10.4 12.3-6.7 18.9 6.5 11.8 24.2 7.6 24.2-5.8 0-9.8-9.1-16.6-17.5-13.1zM153.6 106.4c-7.1 1.7-13.1 3.7-13.4 4.3-.2.8.5 1.3 1.6 1.3 1 0 2.6.8 3.5 1.8 1.5 1.7 1.7 6.4 1.7 46.4v44.5l-2.3 2.1c-1.3 1.2-2.9 2.2-3.5 2.2-.7 0-1.2.4-1.2 1s6.7 1 18.3.9c14.5 0 17.8-.3 16.3-1.2-5.9-3.7-5.7-2.2-5.4-33.5l.3-28.7 5.4-2.8c7.2-3.6 13.2-3.7 16.6-.2l2.5 2.4V176c0 27.7-.1 29.1-2 31-1.1 1.1-2.7 2-3.5 2-.8 0-1.5.4-1.5 1s6.7 1 18 1 18-.4 18-1-.7-1-1.5-1-2.4-.9-3.5-2c-1.9-1.9-2-3.3-2-27.8 0-32.3-1.1-36.6-10.2-41.3-8.8-4.5-19.2-3.4-30.2 3.2-3.6 2.1-6.8 3.9-7.2 3.9-.3 0-.3-9.2.1-20.4.6-16.7.5-20.4-.6-20.8-.8-.2-7.2.9-14.3 2.6zM68.6 141.2c-.8 7.2-.8 15.8.2 15.8.4 0 2.2-2.9 4.1-6.5 1.8-3.6 4.7-7.6 6.3-9 2.8-2.4 3.5-2.5 16.5-2.5h13.5l-1.6 2.4C99.9 153.3 67 208.3 67 209.5c0 1.3 4.3 1.5 32 1.5h32v-3.3c0-1.7.3-6.9.7-11.5.3-4.8.2-8.2-.3-8.2s-2.2 3-3.8 6.6c-1.6 3.6-4.3 8.1-6.1 10l-3.2 3.4H104c-12.1 0-14.1-.2-13.7-1.5.4-.8 9.4-16.2 20.1-34.2 10.7-18 19.8-33.6 20.1-34.6.7-1.6-1.2-1.7-30.3-1.7H69.3l-.7 5.2z"/></svg>